<mxfile host="app.diagrams.net" modified="2024-01-25T08:37:36.706Z" agent="Mozilla/5.0 (Macintosh; Intel Mac OS X 10_15_7) AppleWebKit/537.36 (KHTML, like Gecko) Chrome/120.0.0.0 Safari/537.36" etag="FDw6kyvGuUPRZbmopO1a" version="23.0.1" type="github">
  <diagram name="Page-1" id="C3Hwjrb-IPvHiDlZz18y">
    <mxGraphModel dx="1623" dy="1646" grid="1" gridSize="10" guides="1" tooltips="1" connect="1" arrows="1" fold="1" page="1" pageScale="1" pageWidth="827" pageHeight="1169" math="0" shadow="0">
      <root>
        <mxCell id="0" />
        <mxCell id="1" parent="0" />
        <mxCell id="0tqYPtEU-48YP9xvBXRx-1" value="User" style="swimlane;childLayout=stackLayout;horizontal=1;startSize=50;horizontalStack=0;rounded=1;fontSize=14;fontStyle=0;strokeWidth=2;resizeParent=0;resizeLast=1;shadow=0;dashed=0;align=center;arcSize=4;whiteSpace=wrap;html=1;" vertex="1" parent="1">
          <mxGeometry x="40" width="160" height="120" as="geometry" />
        </mxCell>
        <mxCell id="0tqYPtEU-48YP9xvBXRx-2" value="userName ( string)&lt;br&gt;userId (int)&lt;br&gt;email (string)&lt;br&gt;password ( string)" style="align=left;strokeColor=none;fillColor=none;spacingLeft=4;fontSize=12;verticalAlign=top;resizable=0;rotatable=0;part=1;html=1;" vertex="1" parent="0tqYPtEU-48YP9xvBXRx-1">
          <mxGeometry y="50" width="160" height="70" as="geometry" />
        </mxCell>
        <mxCell id="0tqYPtEU-48YP9xvBXRx-3" value="Appointment" style="swimlane;childLayout=stackLayout;horizontal=1;startSize=50;horizontalStack=0;rounded=1;fontSize=14;fontStyle=0;strokeWidth=2;resizeParent=0;resizeLast=1;shadow=0;dashed=0;align=center;arcSize=4;whiteSpace=wrap;html=1;" vertex="1" parent="1">
          <mxGeometry x="570" y="-20" width="200" height="160" as="geometry" />
        </mxCell>
        <mxCell id="0tqYPtEU-48YP9xvBXRx-4" value="appointmentId ( int)&lt;br&gt;appointmentDate&amp;amp;time ( dateTime)&lt;br&gt;duration ( dateTime)&lt;br&gt;status(pending, confirmed..) ( string)" style="align=left;strokeColor=none;fillColor=none;spacingLeft=4;fontSize=12;verticalAlign=top;resizable=0;rotatable=0;part=1;html=1;" vertex="1" parent="0tqYPtEU-48YP9xvBXRx-3">
          <mxGeometry y="50" width="200" height="110" as="geometry" />
        </mxCell>
        <mxCell id="0tqYPtEU-48YP9xvBXRx-8" value="Reminder" style="swimlane;childLayout=stackLayout;horizontal=1;startSize=50;horizontalStack=0;rounded=1;fontSize=14;fontStyle=0;strokeWidth=2;resizeParent=0;resizeLast=1;shadow=0;dashed=0;align=center;arcSize=4;whiteSpace=wrap;html=1;" vertex="1" parent="1">
          <mxGeometry x="290" y="300" width="170" height="120" as="geometry" />
        </mxCell>
        <mxCell id="0tqYPtEU-48YP9xvBXRx-9" value="reminderId ( int)&amp;nbsp;&lt;br&gt;reminderDate&amp;amp;time( dateTime)&lt;br&gt;content/message ( string)&lt;br&gt;deliveryMood(email) (string)" style="align=left;strokeColor=none;fillColor=none;spacingLeft=4;fontSize=12;verticalAlign=top;resizable=0;rotatable=0;part=1;html=1;" vertex="1" parent="0tqYPtEU-48YP9xvBXRx-8">
          <mxGeometry y="50" width="170" height="70" as="geometry" />
        </mxCell>
        <mxCell id="0tqYPtEU-48YP9xvBXRx-10" value="Notification Settings" style="swimlane;childLayout=stackLayout;horizontal=1;startSize=50;horizontalStack=0;rounded=1;fontSize=14;fontStyle=0;strokeWidth=2;resizeParent=0;resizeLast=1;shadow=0;dashed=0;align=center;arcSize=4;whiteSpace=wrap;html=1;" vertex="1" parent="1">
          <mxGeometry x="-290" y="290" width="210" height="130" as="geometry" />
        </mxCell>
        <mxCell id="0tqYPtEU-48YP9xvBXRx-11" value="userId ( int)&lt;br&gt;notificationMethodPreference( string)&lt;br&gt;timingPreference ( dateTime)" style="align=left;strokeColor=none;fillColor=none;spacingLeft=4;fontSize=12;verticalAlign=top;resizable=0;rotatable=0;part=1;html=1;" vertex="1" parent="0tqYPtEU-48YP9xvBXRx-10">
          <mxGeometry y="50" width="210" height="80" as="geometry" />
        </mxCell>
        <mxCell id="0tqYPtEU-48YP9xvBXRx-12" value="Calander" style="swimlane;childLayout=stackLayout;horizontal=1;startSize=50;horizontalStack=0;rounded=1;fontSize=14;fontStyle=0;strokeWidth=2;resizeParent=0;resizeLast=1;shadow=0;dashed=0;align=center;arcSize=4;whiteSpace=wrap;html=1;" vertex="1" parent="1">
          <mxGeometry x="667" y="400" width="160" height="120" as="geometry" />
        </mxCell>
        <mxCell id="0tqYPtEU-48YP9xvBXRx-13" value="userId ( int)&lt;br&gt;appointmentList(list)" style="align=left;strokeColor=none;fillColor=none;spacingLeft=4;fontSize=12;verticalAlign=top;resizable=0;rotatable=0;part=1;html=1;" vertex="1" parent="0tqYPtEU-48YP9xvBXRx-12">
          <mxGeometry y="50" width="160" height="70" as="geometry" />
        </mxCell>
        <mxCell id="0tqYPtEU-48YP9xvBXRx-24" value="Create Appointment" style="swimlane;childLayout=stackLayout;horizontal=1;startSize=50;horizontalStack=0;rounded=1;fontSize=14;fontStyle=0;strokeWidth=2;resizeParent=0;resizeLast=1;shadow=0;dashed=0;align=center;arcSize=4;whiteSpace=wrap;html=1;" vertex="1" parent="1">
          <mxGeometry x="290" y="120" width="160" height="120" as="geometry" />
        </mxCell>
        <mxCell id="0tqYPtEU-48YP9xvBXRx-25" value="createdAt (dateTime)" style="align=left;strokeColor=none;fillColor=none;spacingLeft=4;fontSize=12;verticalAlign=top;resizable=0;rotatable=0;part=1;html=1;" vertex="1" parent="0tqYPtEU-48YP9xvBXRx-24">
          <mxGeometry y="50" width="160" height="70" as="geometry" />
        </mxCell>
        <mxCell id="0tqYPtEU-48YP9xvBXRx-26" value="" style="edgeStyle=entityRelationEdgeStyle;fontSize=12;html=1;endArrow=ERoneToMany;rounded=0;entryX=0;entryY=0.5;entryDx=0;entryDy=0;exitX=1;exitY=0.5;exitDx=0;exitDy=0;" edge="1" parent="1" source="0tqYPtEU-48YP9xvBXRx-2" target="0tqYPtEU-48YP9xvBXRx-24">
          <mxGeometry width="100" height="100" relative="1" as="geometry">
            <mxPoint x="160" y="240" as="sourcePoint" />
            <mxPoint x="260" y="140" as="targetPoint" />
            <Array as="points">
              <mxPoint x="60" y="190" />
            </Array>
          </mxGeometry>
        </mxCell>
        <mxCell id="0tqYPtEU-48YP9xvBXRx-33" value="user create appointment" style="edgeLabel;html=1;align=center;verticalAlign=middle;resizable=0;points=[];" vertex="1" connectable="0" parent="0tqYPtEU-48YP9xvBXRx-26">
          <mxGeometry x="-0.2003" y="1" relative="1" as="geometry">
            <mxPoint as="offset" />
          </mxGeometry>
        </mxCell>
        <mxCell id="0tqYPtEU-48YP9xvBXRx-27" value="" style="edgeStyle=entityRelationEdgeStyle;fontSize=12;html=1;endArrow=ERoneToMany;rounded=0;entryX=1;entryY=0.25;entryDx=0;entryDy=0;exitX=0;exitY=0;exitDx=0;exitDy=0;" edge="1" parent="1" source="0tqYPtEU-48YP9xvBXRx-4" target="0tqYPtEU-48YP9xvBXRx-25">
          <mxGeometry width="100" height="100" relative="1" as="geometry">
            <mxPoint x="450" y="290" as="sourcePoint" />
            <mxPoint x="550" y="190" as="targetPoint" />
            <Array as="points">
              <mxPoint x="620" y="260" />
            </Array>
          </mxGeometry>
        </mxCell>
        <mxCell id="0tqYPtEU-48YP9xvBXRx-34" value="create an appointment" style="edgeLabel;html=1;align=center;verticalAlign=middle;resizable=0;points=[];" vertex="1" connectable="0" parent="0tqYPtEU-48YP9xvBXRx-27">
          <mxGeometry x="0.082" relative="1" as="geometry">
            <mxPoint y="-48" as="offset" />
          </mxGeometry>
        </mxCell>
        <mxCell id="0tqYPtEU-48YP9xvBXRx-32" value="" style="edgeStyle=entityRelationEdgeStyle;fontSize=12;html=1;endArrow=ERmandOne;startArrow=ERmandOne;rounded=0;entryX=0;entryY=0.5;entryDx=0;entryDy=0;exitX=1;exitY=0.5;exitDx=0;exitDy=0;" edge="1" parent="1" source="0tqYPtEU-48YP9xvBXRx-9" target="0tqYPtEU-48YP9xvBXRx-12">
          <mxGeometry width="100" height="100" relative="1" as="geometry">
            <mxPoint x="390" y="400" as="sourcePoint" />
            <mxPoint x="490" y="300" as="targetPoint" />
          </mxGeometry>
        </mxCell>
        <mxCell id="0tqYPtEU-48YP9xvBXRx-37" value="add reminder to the calender" style="edgeLabel;html=1;align=center;verticalAlign=middle;resizable=0;points=[];" vertex="1" connectable="0" parent="0tqYPtEU-48YP9xvBXRx-32">
          <mxGeometry x="-0.0537" y="2" relative="1" as="geometry">
            <mxPoint x="4" as="offset" />
          </mxGeometry>
        </mxCell>
        <mxCell id="0tqYPtEU-48YP9xvBXRx-29" value="" style="edgeStyle=entityRelationEdgeStyle;fontSize=12;html=1;endArrow=ERmandOne;startArrow=ERmandOne;rounded=0;exitX=1;exitY=0;exitDx=0;exitDy=0;entryX=0;entryY=1;entryDx=0;entryDy=0;" edge="1" parent="1" source="0tqYPtEU-48YP9xvBXRx-9" target="0tqYPtEU-48YP9xvBXRx-4">
          <mxGeometry width="100" height="100" relative="1" as="geometry">
            <mxPoint x="480" y="385" as="sourcePoint" />
            <mxPoint x="770" y="130" as="targetPoint" />
            <Array as="points">
              <mxPoint x="690" y="477.5" />
              <mxPoint x="750" y="247.5" />
              <mxPoint x="710" y="457.5" />
            </Array>
          </mxGeometry>
        </mxCell>
        <mxCell id="0tqYPtEU-48YP9xvBXRx-36" value="add a reminder" style="edgeLabel;html=1;align=center;verticalAlign=middle;resizable=0;points=[];" vertex="1" connectable="0" parent="0tqYPtEU-48YP9xvBXRx-29">
          <mxGeometry x="0.2814" y="1" relative="1" as="geometry">
            <mxPoint as="offset" />
          </mxGeometry>
        </mxCell>
      </root>
    </mxGraphModel>
  </diagram>
</mxfile>
